<svg width="44" height="48" viewBox="0 0 44 48" fill="none" xmlns="http://www.w3.org/2000/svg">
<path d="M22.5 24.0896C22.2938 24.0896 22.099 24.0629 21.9156 24.0095C21.7323 23.9561 21.5604 23.8751 21.4 23.7666C18.5354 21.6785 16.3982 19.6441 14.9884 17.6635C13.5785 15.683 12.8741 13.7347 12.875 11.8187C12.875 10.2903 13.1674 8.94994 13.7523 7.79777C14.3371 6.6456 15.0869 5.68245 16.0018 4.90831C16.9184 4.13331 17.9497 3.55206 19.0955 3.16456C20.2413 2.77706 21.3762 2.58331 22.5 2.58331C23.6229 2.58331 24.7573 2.77706 25.9031 3.16456C27.049 3.55206 28.0802 4.13331 28.9969 4.90831C29.9135 5.68331 30.6643 6.6469 31.2491 7.79906C31.834 8.95123 32.1259 10.2911 32.125 11.8187C32.125 13.7347 31.4201 15.683 30.0103 17.6635C28.6004 19.6441 26.4637 21.6785 23.6 23.7666C23.4625 23.8743 23.2961 23.9552 23.1009 24.0095C22.9056 24.0637 22.7053 24.0904 22.5 24.0896ZM22.5 14.2083C23.2563 14.2083 23.9039 13.9556 24.4429 13.4501C24.9819 12.9446 25.2509 12.3363 25.25 11.625C25.25 10.9146 24.9805 10.3062 24.4415 9.79985C23.9025 9.29352 23.2553 9.04078 22.5 9.04165C21.7438 9.04165 21.0961 9.29481 20.5571 9.80115C20.0181 10.3075 19.7491 10.9154 19.75 11.625C19.75 12.3354 20.0195 12.9438 20.5585 13.4501C21.0975 13.9564 21.7447 14.2092 22.5 14.2083ZM14.25 28.4166C13.8604 28.4166 13.5336 28.2926 13.2696 28.0446C13.0056 27.7966 12.8741 27.4901 12.875 27.125C12.875 26.759 13.007 26.452 13.271 26.204C13.535 25.956 13.8613 25.8325 14.25 25.8333H30.75C31.1396 25.8333 31.4664 25.9573 31.7304 26.2053C31.9944 26.4533 32.1259 26.7599 32.125 27.125C32.125 27.491 31.993 27.7979 31.729 28.0459C31.465 28.2939 31.1387 28.4175 30.75 28.4166H14.25Z" fill="#86C8BC"/>
<path d="M6.516 38.084C6.516 38.78 6.276 39.36 5.796 39.824C5.324 40.28 4.6 40.508 3.624 40.508H2.016V44H0.924V35.636H3.624C4.568 35.636 5.284 35.864 5.772 36.32C6.268 36.776 6.516 37.364 6.516 38.084ZM3.624 39.608C4.232 39.608 4.68 39.476 4.968 39.212C5.256 38.948 5.4 38.572 5.4 38.084C5.4 37.052 4.808 36.536 3.624 36.536H2.016V39.608H3.624ZM8.43722 36.356C8.22922 36.356 8.05322 36.284 7.90922 36.14C7.76522 35.996 7.69322 35.82 7.69322 35.612C7.69322 35.404 7.76522 35.228 7.90922 35.084C8.05322 34.94 8.22922 34.868 8.43722 34.868C8.63722 34.868 8.80522 34.94 8.94122 35.084C9.08522 35.228 9.15722 35.404 9.15722 35.612C9.15722 35.82 9.08522 35.996 8.94122 36.14C8.80522 36.284 8.63722 36.356 8.43722 36.356ZM8.96522 37.424V44H7.87322V37.424H8.96522ZM10.4183 40.7C10.4183 40.02 10.5543 39.428 10.8263 38.924C11.0983 38.412 11.4743 38.016 11.9543 37.736C12.4423 37.456 12.9983 37.316 13.6223 37.316C14.4303 37.316 15.0943 37.512 15.6143 37.904C16.1423 38.296 16.4903 38.84 16.6583 39.536H15.4823C15.3703 39.136 15.1503 38.82 14.8223 38.588C14.5023 38.356 14.1023 38.24 13.6223 38.24C12.9983 38.24 12.4943 38.456 12.1103 38.888C11.7263 39.312 11.5343 39.916 11.5343 40.7C11.5343 41.492 11.7263 42.104 12.1103 42.536C12.4943 42.968 12.9983 43.184 13.6223 43.184C14.1023 43.184 14.5023 43.072 14.8223 42.848C15.1423 42.624 15.3623 42.304 15.4823 41.888H16.6583C16.4823 42.56 16.1303 43.1 15.6023 43.508C15.0743 43.908 14.4143 44.108 13.6223 44.108C12.9983 44.108 12.4423 43.968 11.9543 43.688C11.4743 43.408 11.0983 43.012 10.8263 42.5C10.5543 41.988 10.4183 41.388 10.4183 40.7ZM21.7874 44L19.2074 41.096V44H18.1154V35.12H19.2074V40.34L21.7394 37.424H23.2634L20.1674 40.7L23.2754 44H21.7874ZM28.5584 35.636V40.928C28.5584 41.672 28.7384 42.224 29.0984 42.584C29.4664 42.944 29.9744 43.124 30.6224 43.124C31.2624 43.124 31.7624 42.944 32.1224 42.584C32.4904 42.224 32.6744 41.672 32.6744 40.928V35.636H33.7664V40.916C33.7664 41.612 33.6264 42.2 33.3464 42.68C33.0664 43.152 32.6864 43.504 32.2064 43.736C31.7344 43.968 31.2024 44.084 30.6104 44.084C30.0184 44.084 29.4824 43.968 29.0024 43.736C28.5304 43.504 28.1544 43.152 27.8744 42.68C27.6024 42.2 27.4664 41.612 27.4664 40.916V35.636H28.5584ZM36.6801 38.636C36.8961 38.26 37.2161 37.948 37.6401 37.7C38.0721 37.444 38.5721 37.316 39.1401 37.316C39.7241 37.316 40.2521 37.456 40.7241 37.736C41.2041 38.016 41.5801 38.412 41.8521 38.924C42.1241 39.428 42.2601 40.016 42.2601 40.688C42.2601 41.352 42.1241 41.944 41.8521 42.464C41.5801 42.984 41.2041 43.388 40.7241 43.676C40.2521 43.964 39.7241 44.108 39.1401 44.108C38.5801 44.108 38.0841 43.984 37.6521 43.736C37.2281 43.48 36.9041 43.164 36.6801 42.788V47.12H35.5881V37.424H36.6801V38.636ZM41.1441 40.688C41.1441 40.192 41.0441 39.76 40.8441 39.392C40.6441 39.024 40.3721 38.744 40.0281 38.552C39.6921 38.36 39.3201 38.264 38.9121 38.264C38.5121 38.264 38.1401 38.364 37.7961 38.564C37.4601 38.756 37.1881 39.04 36.9801 39.416C36.7801 39.784 36.6801 40.212 36.6801 40.7C36.6801 41.196 36.7801 41.632 36.9801 42.008C37.1881 42.376 37.4601 42.66 37.7961 42.86C38.1401 43.052 38.5121 43.148 38.9121 43.148C39.3201 43.148 39.6921 43.052 40.0281 42.86C40.3721 42.66 40.6441 42.376 40.8441 42.008C41.0441 41.632 41.1441 41.192 41.1441 40.688Z" fill="#86C8BC"/>
</svg>
