<svg width="149" height="21" viewBox="0 0 149 21" fill="none" xmlns="http://www.w3.org/2000/svg">
<path d="M33.88 15L31.836 11.29H31.262V15H28.868V5.172H32.886C33.6607 5.172 34.3187 5.30733 34.86 5.578C35.4107 5.84867 35.8213 6.222 36.092 6.698C36.3627 7.16467 36.498 7.68733 36.498 8.266C36.498 8.91933 36.3113 9.50267 35.938 10.016C35.574 10.5293 35.0327 10.8933 34.314 11.108L36.582 15H33.88ZM31.262 9.596H32.746C33.1847 9.596 33.5113 9.48867 33.726 9.274C33.95 9.05933 34.062 8.756 34.062 8.364C34.062 7.99067 33.95 7.69667 33.726 7.482C33.5113 7.26733 33.1847 7.16 32.746 7.16H31.262V9.596ZM39.2048 6.376C38.7848 6.376 38.4395 6.25467 38.1688 6.012C37.9075 5.76 37.7768 5.452 37.7768 5.088C37.7768 4.71467 37.9075 4.40667 38.1688 4.164C38.4395 3.912 38.7848 3.786 39.2048 3.786C39.6155 3.786 39.9515 3.912 40.2128 4.164C40.4835 4.40667 40.6188 4.71467 40.6188 5.088C40.6188 5.452 40.4835 5.76 40.2128 6.012C39.9515 6.25467 39.6155 6.376 39.2048 6.376ZM40.3948 7.188V15H38.0008V7.188H40.3948ZM53.3437 7.188L51.2297 15H48.5837L47.3517 9.932L46.0777 15H43.4457L41.3177 7.188H43.7117L44.8177 12.774L46.1337 7.188H48.6677L49.9977 12.746L51.0897 7.188H53.3437ZM53.7807 11.08C53.7807 10.2773 53.93 9.57267 54.2287 8.966C54.5367 8.35933 54.952 7.89267 55.4747 7.566C55.9973 7.23933 56.5807 7.076 57.2247 7.076C57.7753 7.076 58.256 7.188 58.6667 7.412C59.0867 7.636 59.4087 7.93 59.6327 8.294V7.188H62.0267V15H59.6327V13.894C59.3993 14.258 59.0727 14.552 58.6527 14.776C58.242 15 57.7613 15.112 57.2107 15.112C56.576 15.112 55.9973 14.9487 55.4747 14.622C54.952 14.286 54.5367 13.8147 54.2287 13.208C53.93 12.592 53.7807 11.8827 53.7807 11.08ZM59.6327 11.094C59.6327 10.4967 59.4647 10.0253 59.1287 9.68C58.802 9.33467 58.4007 9.162 57.9247 9.162C57.4487 9.162 57.0427 9.33467 56.7067 9.68C56.38 10.016 56.2167 10.4827 56.2167 11.08C56.2167 11.6773 56.38 12.1533 56.7067 12.508C57.0427 12.8533 57.4487 13.026 57.9247 13.026C58.4007 13.026 58.802 12.8533 59.1287 12.508C59.4647 12.1627 59.6327 11.6913 59.6327 11.094ZM71.7386 7.188L66.8386 18.71H64.2626L66.0546 14.734L62.8766 7.188H65.5506L67.3566 12.074L69.1486 7.188H71.7386ZM72.1283 11.08C72.1283 10.2773 72.2777 9.57267 72.5763 8.966C72.8843 8.35933 73.2997 7.89267 73.8223 7.566C74.345 7.23933 74.9283 7.076 75.5723 7.076C76.123 7.076 76.6037 7.188 77.0143 7.412C77.4343 7.636 77.7563 7.93 77.9803 8.294V7.188H80.3743V15H77.9803V13.894C77.747 14.258 77.4203 14.552 77.0003 14.776C76.5897 15 76.109 15.112 75.5583 15.112C74.9237 15.112 74.345 14.9487 73.8223 14.622C73.2997 14.286 72.8843 13.8147 72.5763 13.208C72.2777 12.592 72.1283 11.8827 72.1283 11.08ZM77.9803 11.094C77.9803 10.4967 77.8123 10.0253 77.4763 9.68C77.1497 9.33467 76.7483 9.162 76.2723 9.162C75.7963 9.162 75.3903 9.33467 75.0543 9.68C74.7277 10.016 74.5643 10.4827 74.5643 11.08C74.5643 11.6773 74.7277 12.1533 75.0543 12.508C75.3903 12.8533 75.7963 13.026 76.2723 13.026C76.7483 13.026 77.1497 12.8533 77.4763 12.508C77.8123 12.1627 77.9803 11.6913 77.9803 11.094ZM86.4603 12.97V15H85.2423C84.3743 15 83.6976 14.79 83.2123 14.37C82.7269 13.9407 82.4843 13.2453 82.4843 12.284V9.176H81.5323V7.188H82.4843V5.284H84.8783V7.188H86.4463V9.176H84.8783V12.312C84.8783 12.5453 84.9343 12.7133 85.0463 12.816C85.1583 12.9187 85.3449 12.97 85.6063 12.97H86.4603ZM94.4426 5.172C95.4786 5.172 96.3839 5.37733 97.1586 5.788C97.9332 6.19867 98.5306 6.77733 98.9506 7.524C99.3799 8.26133 99.5946 9.11533 99.5946 10.086C99.5946 11.0473 99.3799 11.9013 98.9506 12.648C98.5306 13.3947 97.9286 13.9733 97.1446 14.384C96.3699 14.7947 95.4692 15 94.4426 15H90.7606V5.172H94.4426ZM94.2886 12.928C95.1939 12.928 95.8986 12.6807 96.4026 12.186C96.9066 11.6913 97.1586 10.9913 97.1586 10.086C97.1586 9.18067 96.9066 8.476 96.4026 7.972C95.8986 7.468 95.1939 7.216 94.2886 7.216H93.1546V12.928H94.2886ZM103.326 8.49C103.606 8.06067 103.956 7.72467 104.376 7.482C104.796 7.23 105.263 7.104 105.776 7.104V9.638H105.118C104.521 9.638 104.073 9.76867 103.774 10.03C103.476 10.282 103.326 10.73 103.326 11.374V15H100.932V7.188H103.326V8.49ZM110.477 15.112C109.711 15.112 109.021 14.9487 108.405 14.622C107.798 14.2953 107.317 13.8287 106.963 13.222C106.617 12.6153 106.445 11.906 106.445 11.094C106.445 10.2913 106.622 9.58667 106.977 8.98C107.331 8.364 107.817 7.89267 108.433 7.566C109.049 7.23933 109.739 7.076 110.505 7.076C111.27 7.076 111.961 7.23933 112.577 7.566C113.193 7.89267 113.678 8.364 114.033 8.98C114.387 9.58667 114.565 10.2913 114.565 11.094C114.565 11.8967 114.383 12.606 114.019 13.222C113.664 13.8287 113.174 14.2953 112.549 14.622C111.933 14.9487 111.242 15.112 110.477 15.112ZM110.477 13.04C110.934 13.04 111.321 12.872 111.639 12.536C111.965 12.2 112.129 11.7193 112.129 11.094C112.129 10.4687 111.97 9.988 111.653 9.652C111.345 9.316 110.962 9.148 110.505 9.148C110.038 9.148 109.651 9.316 109.343 9.652C109.035 9.97867 108.881 10.4593 108.881 11.094C108.881 11.7193 109.03 12.2 109.329 12.536C109.637 12.872 110.019 13.04 110.477 13.04ZM118.229 8.294C118.462 7.93 118.784 7.636 119.195 7.412C119.605 7.188 120.086 7.076 120.637 7.076C121.281 7.076 121.864 7.23933 122.387 7.566C122.909 7.89267 123.32 8.35933 123.619 8.966C123.927 9.57267 124.081 10.2773 124.081 11.08C124.081 11.8827 123.927 12.592 123.619 13.208C123.32 13.8147 122.909 14.286 122.387 14.622C121.864 14.9487 121.281 15.112 120.637 15.112C120.095 15.112 119.615 15 119.195 14.776C118.784 14.552 118.462 14.2627 118.229 13.908V18.724H115.835V7.188H118.229V8.294ZM121.645 11.08C121.645 10.4827 121.477 10.016 121.141 9.68C120.814 9.33467 120.408 9.162 119.923 9.162C119.447 9.162 119.041 9.33467 118.705 9.68C118.378 10.0253 118.215 10.4967 118.215 11.094C118.215 11.6913 118.378 12.1627 118.705 12.508C119.041 12.8533 119.447 13.026 119.923 13.026C120.399 13.026 120.805 12.8533 121.141 12.508C121.477 12.1533 121.645 11.6773 121.645 11.08ZM132.952 15.098C132.028 15.098 131.178 14.8833 130.404 14.454C129.638 14.0247 129.027 13.4273 128.57 12.662C128.122 11.8873 127.898 11.0193 127.898 10.058C127.898 9.09667 128.122 8.23333 128.57 7.468C129.027 6.70267 129.638 6.10533 130.404 5.676C131.178 5.24667 132.028 5.032 132.952 5.032C133.876 5.032 134.72 5.24667 135.486 5.676C136.26 6.10533 136.867 6.70267 137.306 7.468C137.754 8.23333 137.978 9.09667 137.978 10.058C137.978 11.0193 137.754 11.8873 137.306 12.662C136.858 13.4273 136.251 14.0247 135.486 14.454C134.72 14.8833 133.876 15.098 132.952 15.098ZM132.952 12.914C133.736 12.914 134.361 12.6527 134.828 12.13C135.304 11.6073 135.542 10.9167 135.542 10.058C135.542 9.19 135.304 8.49933 134.828 7.986C134.361 7.46333 133.736 7.202 132.952 7.202C132.158 7.202 131.524 7.45867 131.048 7.972C130.581 8.48533 130.348 9.18067 130.348 10.058C130.348 10.926 130.581 11.6213 131.048 12.144C131.524 12.6573 132.158 12.914 132.952 12.914ZM143.229 9.176H141.941V15H139.547V9.176H138.679V7.188H139.547V6.964C139.547 6.00267 139.823 5.27467 140.373 4.78C140.924 4.276 141.731 4.024 142.795 4.024C142.973 4.024 143.103 4.02867 143.187 4.038V6.068C142.73 6.04 142.408 6.10533 142.221 6.264C142.035 6.42267 141.941 6.70733 141.941 7.118V7.188H143.229V9.176ZM148.274 9.176H146.986V15H144.592V9.176H143.724V7.188H144.592V6.964C144.592 6.00267 144.868 5.27467 145.418 4.78C145.969 4.276 146.776 4.024 147.84 4.024C148.018 4.024 148.148 4.02867 148.232 4.038V6.068C147.775 6.04 147.453 6.10533 147.266 6.264C147.08 6.42267 146.986 6.70733 146.986 7.118V7.188H148.274V9.176Z" fill="#252525"/>
<path d="M10.8333 10.6667L12.9167 12.75C13.0694 12.9028 13.1458 13.0972 13.1458 13.3333C13.1458 13.5694 13.0694 13.7639 12.9167 13.9167C12.7639 14.0694 12.5694 14.1458 12.3333 14.1458C12.0972 14.1458 11.9028 14.0694 11.75 13.9167L9.41667 11.5833C9.33333 11.5 9.27083 11.4061 9.22917 11.3017C9.1875 11.1978 9.16667 11.0903 9.16667 10.9792V7.66667C9.16667 7.43056 9.24667 7.2325 9.40667 7.0725C9.56611 6.91306 9.76389 6.83333 10 6.83333C10.2361 6.83333 10.4342 6.91306 10.5942 7.0725C10.7536 7.2325 10.8333 7.43056 10.8333 7.66667V10.6667ZM10 18.5C8.31944 18.5 6.8125 18.0033 5.47917 17.01C4.14583 16.0172 3.25 14.7222 2.79167 13.125C2.72222 12.875 2.74667 12.6389 2.865 12.4167C2.98278 12.1944 3.16667 12.0556 3.41667 12C3.65278 11.9444 3.86472 11.9964 4.0525 12.1558C4.23972 12.3158 4.36806 12.5139 4.4375 12.75C4.79861 13.9722 5.49667 14.9583 6.53167 15.7083C7.56611 16.4583 8.72222 16.8333 10 16.8333C11.625 16.8333 13.0033 16.2672 14.135 15.135C15.2672 14.0033 15.8333 12.625 15.8333 11C15.8333 9.375 15.2672 7.99639 14.135 6.86417C13.0033 5.7325 11.625 5.16667 10 5.16667C9.04167 5.16667 8.14583 5.38889 7.3125 5.83333C6.47917 6.27778 5.77778 6.88889 5.20833 7.66667H6.66667C6.90278 7.66667 7.10083 7.74639 7.26083 7.90583C7.42028 8.06583 7.5 8.26389 7.5 8.5C7.5 8.73611 7.42028 8.93389 7.26083 9.09333C7.10083 9.25333 6.90278 9.33333 6.66667 9.33333H3.33333C3.09722 9.33333 2.89944 9.25333 2.74 9.09333C2.58 8.93389 2.5 8.73611 2.5 8.5V5.16667C2.5 4.93056 2.58 4.7325 2.74 4.5725C2.89944 4.41306 3.09722 4.33333 3.33333 4.33333C3.56944 4.33333 3.7675 4.41306 3.9275 4.5725C4.08694 4.7325 4.16667 4.93056 4.16667 5.16667V6.29167C4.875 5.40278 5.73972 4.71528 6.76083 4.22917C7.78139 3.74306 8.86111 3.5 10 3.5C11.0417 3.5 12.0175 3.69778 12.9275 4.09333C13.8369 4.48944 14.6286 5.02417 15.3025 5.6975C15.9758 6.37139 16.5106 7.16306 16.9067 8.0725C17.3022 8.9825 17.5 9.95833 17.5 11C17.5 12.0417 17.3022 13.0172 16.9067 13.9267C16.5106 14.8367 15.9758 15.6283 15.3025 16.3017C14.6286 16.9756 13.8369 17.5106 12.9275 17.9067C12.0175 18.3022 11.0417 18.5 10 18.5Z" fill="#252525"/>
</svg>
